<svg xmlns="http://www.w3.org/2000/svg" xmlns:xlink="http://www.w3.org/1999/xlink" version="1.1" x="0px" y="0px" viewBox="0 0 100 125" style="enable-background:new 0 0 100 100;" xml:space="preserve"><path d="M94,63.5c-1.6-1.6-2.2-3.9-1.7-6l1.7-6.6c1.1-4.2-0.2-8.8-3.3-11.9L73.1,21.3c-1.4-1.4-3.3-2.2-5.3-2.2  c-2,0-3.9,0.8-5.3,2.2c-0.6,0.6-1.1,1.3-1.5,2.1L44.8,7.2C43.4,5.8,41.5,5,39.5,5c-2,0-3.9,0.8-5.3,2.2c-0.7,0.7-1.2,1.5-1.6,2.3  c-1.1-0.6-2.4-1-3.7-1c-2,0-3.9,0.8-5.3,2.2c-2.4,2.4-2.8,6.2-1.2,9c-0.9,0.4-1.7,0.9-2.3,1.6c-0.7,0.7-1.2,1.5-1.6,2.3  c-2.9-1.6-6.6-1.2-9,1.2c-2.9,2.9-2.9,7.7,0,10.6l0.3,0.3c-0.7,0.4-1.5,0.8-2.1,1.5c-2.9,2.9-2.9,7.7,0,10.6l2.1,2.1  c-0.7,0.4-1.5,0.8-2.1,1.5c-2.9,2.9-2.9,7.7,0,10.6l15.4,15.4C34.4,88.8,49.5,95,65.5,95c0.7,0,1.3-0.3,1.8-0.7l12.8-12.8  c0,0,0,0,0,0l14.1-14.1c0.5-0.5,0.7-1.1,0.7-1.8s-0.3-1.3-0.7-1.8L94,63.5z M75,63.8l-1.7,6.6c-0.8,3.1-0.2,6.4,1.6,9.1L64.5,90  c-14.3-0.3-27.8-6-37.9-16.1L11.2,58.5c-0.5-0.5-0.7-1.1-0.7-1.8c0-0.7,0.3-1.3,0.7-1.8s1.1-0.7,1.8-0.7c0.7,0,1.3,0.3,1.8,0.7  l12.4,12.4c1,1,2.6,1,3.5,0c1-1,1-2.6,0-3.5L11.2,44.3c-1-1-1-2.6,0-3.5s2.6-1,3.5,0l19.4,19.4c1,1,2.6,1,3.5,0c1-1,1-2.6,0-3.5  L13,31.9c-1-1-1-2.6,0-3.5c1-1,2.6-1,3.5,0l24.7,24.7c1,1,2.6,1,3.5,0c1-1,1-2.6,0-3.5L23.6,28.4c-1-1-1-2.6,0-3.5  c0.9-0.9,2.6-0.9,3.5,0l21.2,21.2c0,0,0,0,0,0l10.6,10.6c1,1,2.6,1,3.5,0c0.5-0.5,0.7-1.1,0.7-1.8s-0.2-1.3-0.7-1.8L51.8,42.5  c-1-1-1-2.6,0-3.5c1-1,2.6-1,3.5,0l17.7,17.7C74.9,58.5,75.7,61.3,75,63.8z M89.2,49.7l-1.7,6.6c-0.8,3.1-0.2,6.4,1.6,9.1L78.6,75.9  c-0.6-1.3-0.8-2.8-0.4-4.2l1.7-6.6c1.1-4.2-0.2-8.8-3.3-11.9L58.9,35.5c-2.9-2.9-7.7-2.9-10.6,0c-0.6,0.6-1.1,1.3-1.5,2.1L30.6,21.3  c0,0,0,0,0,0l-3.5-3.5c-1-1-1-2.6,0-3.5c1-1,2.6-1,3.5,0l3.2,3.2c0.1,0.1,0.2,0.2,0.3,0.4l11.6,11.5c1,1,2.6,1,3.5,0  c1-1,1-2.6,0-3.5L37.5,14.1c-0.4-0.4-0.5-1-0.5-1.6c0-0.7,0.3-1.3,0.7-1.8c0.9-0.9,2.6-0.9,3.5,0l21.2,21.2c0,0,0,0,0,0l10.6,10.6  c1,1,2.6,1,3.5,0c0.5-0.5,0.7-1.1,0.7-1.8s-0.2-1.3-0.7-1.8L66,28.4c-1-1-1-2.6,0-3.5c1-1,2.6-1,3.5,0l17.7,17.7  C89,44.4,89.8,47.1,89.2,49.7z"/><path d="M75,17.5c4.1,0,7.5,3.4,7.5,7.5c0,1.4,1.1,2.5,2.5,2.5s2.5-1.1,2.5-2.5c0-6.9-5.6-12.5-12.5-12.5c-1.4,0-2.5,1.1-2.5,2.5  S73.6,17.5,75,17.5z"/><path d="M80,5c-1.4,0-2.5,1.1-2.5,2.5S78.6,10,80,10c5.5,0,10,4.5,10,10c0,1.4,1.1,2.5,2.5,2.5S95,21.4,95,20C95,11.7,88.3,5,80,5z"/><path d="M25,82.5c-4.1,0-7.5-3.4-7.5-7.5c0-1.4-1.1-2.5-2.5-2.5s-2.5,1.1-2.5,2.5c0,6.9,5.6,12.5,12.5,12.5c1.4,0,2.5-1.1,2.5-2.5  S26.4,82.5,25,82.5z"/><path d="M20,90c-5.5,0-10-4.5-10-10c0-1.4-1.1-2.5-2.5-2.5S5,78.6,5,80c0,8.3,6.7,15,15,15c1.4,0,2.5-1.1,2.5-2.5S21.4,90,20,90z"/><text x="0" y="115" fill="#000000" font-size="5px" font-weight="bold" font-family="'Helvetica Neue', Helvetica, Arial-Unicode, Arial, Sans-serif">Created by Arthur Shlain</text><text x="0" y="120" fill="#000000" font-size="5px" font-weight="bold" font-family="'Helvetica Neue', Helvetica, Arial-Unicode, Arial, Sans-serif">from the Noun Project</text></svg>